<mxfile host="app.diagrams.net" agent="Mozilla/5.0 (Windows NT 10.0; Win64; x64) AppleWebKit/537.36 (KHTML, like Gecko) Chrome/129.0.0.0 Safari/537.36 Edg/129.0.0.0" version="24.7.17">
  <diagram name="第 1 页" id="lblaSPw6iODvDSc-jWO1">
    <mxGraphModel dx="333" dy="184" grid="1" gridSize="10" guides="1" tooltips="1" connect="1" arrows="1" fold="1" page="1" pageScale="1" pageWidth="827" pageHeight="1169" math="0" shadow="0">
      <root>
        <mxCell id="0" />
        <mxCell id="1" parent="0" />
        <mxCell id="c6i5zfgX7v_MsmKuw-x--94" value="4" style="whiteSpace=wrap;fillColor=#fff2cc;fontSize=12;fontFamily=Times New Roman;fontStyle=1;spacing=0;strokeColor=#d6b656;dashed=1;" parent="1" vertex="1">
          <mxGeometry x="440.32" y="409" width="39.73" height="10" as="geometry" />
        </mxCell>
        <mxCell id="c6i5zfgX7v_MsmKuw-x--93" value="3" style="whiteSpace=wrap;fillColor=#fff2cc;fontSize=12;fontFamily=Times New Roman;fontStyle=1;spacing=0;strokeColor=#d6b656;dashed=1;" parent="1" vertex="1">
          <mxGeometry x="399.59000000000003" y="409" width="39.73" height="10" as="geometry" />
        </mxCell>
        <mxCell id="N47SgGlcZyZ_UvSWA4Ys-12" value="&lt;span style=&quot;font-weight: 700;&quot;&gt;1&lt;/span&gt;" style="whiteSpace=wrap;html=1;fillColor=#f8cecc;fontFamily=Times New Roman;strokeColor=#b85450;" parent="1" vertex="1">
          <mxGeometry x="365.09999999999997" y="614" width="20" height="10" as="geometry" />
        </mxCell>
        <mxCell id="N47SgGlcZyZ_UvSWA4Ys-13" value="1" style="whiteSpace=wrap;fillColor=#e1d5e7;fontSize=12;fontFamily=Times New Roman;fontStyle=1;labelPosition=center;verticalLabelPosition=middle;align=center;verticalAlign=middle;spacing=0;strokeColor=#9673a6;" parent="1" vertex="1">
          <mxGeometry x="370" y="629" width="20" height="10" as="geometry" />
        </mxCell>
        <mxCell id="fJmmpFzyFAi8Mp6fvbiu-1" value="" style="rounded=0;whiteSpace=wrap;html=1;" parent="1" vertex="1">
          <mxGeometry x="540.5" y="485.04" width="86" height="66.04" as="geometry" />
        </mxCell>
        <mxCell id="fJmmpFzyFAi8Mp6fvbiu-2" value="1" style="whiteSpace=wrap;fontFamily=Times New Roman;fontSize=12;fontStyle=1;labelPosition=center;verticalLabelPosition=middle;align=center;verticalAlign=middle;spacing=0;" parent="1" vertex="1">
          <mxGeometry x="310" y="392" width="30" height="10" as="geometry" />
        </mxCell>
        <mxCell id="fJmmpFzyFAi8Mp6fvbiu-3" value="1" style="whiteSpace=wrap;fillColor=#e1d5e7;fontFamily=Times New Roman;fontSize=12;fontStyle=1;labelPosition=center;verticalLabelPosition=middle;align=center;verticalAlign=middle;spacing=0;strokeColor=#9673a6;" parent="1" vertex="1">
          <mxGeometry x="390" y="443" width="80" height="10" as="geometry" />
        </mxCell>
        <mxCell id="fJmmpFzyFAi8Mp6fvbiu-4" value="1" style="whiteSpace=wrap;fillColor=#f8cecc;fontFamily=Times New Roman;fontSize=12;fontStyle=1;labelPosition=center;verticalLabelPosition=middle;align=center;verticalAlign=middle;spacing=0;strokeColor=#b85450;" parent="1" vertex="1">
          <mxGeometry x="350" y="426" width="40" height="10" as="geometry" />
        </mxCell>
        <mxCell id="fJmmpFzyFAi8Mp6fvbiu-5" value="" style="whiteSpace=wrap;html=1;aspect=fixed;fillColor=#FFFFFF;fontFamily=Times New Roman;" parent="1" vertex="1">
          <mxGeometry x="545.5" y="487.15999999999997" width="10" height="10" as="geometry" />
        </mxCell>
        <mxCell id="fJmmpFzyFAi8Mp6fvbiu-6" value="" style="whiteSpace=wrap;html=1;aspect=fixed;fillColor=#f8cecc;fontFamily=Times New Roman;strokeColor=#b85450;" parent="1" vertex="1">
          <mxGeometry x="545.5" y="500.15999999999985" width="10" height="10" as="geometry" />
        </mxCell>
        <mxCell id="fJmmpFzyFAi8Mp6fvbiu-7" value="" style="whiteSpace=wrap;html=1;aspect=fixed;fillColor=#fff2cc;fontFamily=Times New Roman;strokeColor=#d6b656;" parent="1" vertex="1">
          <mxGeometry x="545.5" y="539.1199999999999" width="10" height="10" as="geometry" />
        </mxCell>
        <mxCell id="fJmmpFzyFAi8Mp6fvbiu-8" value="" style="whiteSpace=wrap;html=1;aspect=fixed;fillColor=#e1d5e7;fontFamily=Times New Roman;strokeColor=#9673a6;" parent="1" vertex="1">
          <mxGeometry x="545.5" y="513.16" width="10" height="10" as="geometry" />
        </mxCell>
        <mxCell id="fJmmpFzyFAi8Mp6fvbiu-9" value="&lt;p style=&quot;line-height: 100%;&quot;&gt;&lt;font style=&quot;font-size: 10px;&quot;&gt;Compute&lt;/font&gt;&lt;/p&gt;" style="text;html=1;align=center;verticalAlign=middle;whiteSpace=wrap;rounded=0;fontFamily=Times New Roman;" parent="1" vertex="1">
          <mxGeometry x="553.5" y="487.15999999999997" width="50" height="10" as="geometry" />
        </mxCell>
        <mxCell id="fJmmpFzyFAi8Mp6fvbiu-10" value="&lt;p style=&quot;line-height: 100%;&quot;&gt;&lt;font style=&quot;font-size: 10px;&quot;&gt;Communication&lt;/font&gt;&lt;/p&gt;" style="text;html=1;align=center;verticalAlign=middle;whiteSpace=wrap;rounded=0;fontFamily=Times New Roman;" parent="1" vertex="1">
          <mxGeometry x="567.5" y="538.1199999999999" width="50" height="10" as="geometry" />
        </mxCell>
        <mxCell id="fJmmpFzyFAi8Mp6fvbiu-11" value="&lt;p style=&quot;line-height: 100%;&quot;&gt;&lt;span style=&quot;font-size: 10px;&quot;&gt;Snapshot&lt;/span&gt;&lt;/p&gt;" style="text;html=1;align=center;verticalAlign=middle;whiteSpace=wrap;rounded=0;fontFamily=Times New Roman;" parent="1" vertex="1">
          <mxGeometry x="553.5" y="500.15999999999985" width="50" height="10" as="geometry" />
        </mxCell>
        <mxCell id="fJmmpFzyFAi8Mp6fvbiu-12" value="&lt;p style=&quot;line-height: 100%;&quot;&gt;&lt;font style=&quot;font-size: 10px;&quot;&gt;Persist&lt;/font&gt;&lt;/p&gt;" style="text;html=1;align=center;verticalAlign=middle;whiteSpace=wrap;rounded=0;fontFamily=Times New Roman;" parent="1" vertex="1">
          <mxGeometry x="548.5" y="513.16" width="50" height="10" as="geometry" />
        </mxCell>
        <mxCell id="fJmmpFzyFAi8Mp6fvbiu-13" value="1" style="whiteSpace=wrap;fontFamily=Times New Roman;fontSize=12;fontStyle=1;labelPosition=center;verticalLabelPosition=middle;align=center;verticalAlign=middle;spacing=0;fillColor=#CCCCCC;" parent="1" vertex="1">
          <mxGeometry x="340" y="392" width="10" height="10" as="geometry" />
        </mxCell>
        <mxCell id="fJmmpFzyFAi8Mp6fvbiu-18" value="&lt;b&gt;(a) CheckFreq&lt;/b&gt;" style="text;html=1;align=center;verticalAlign=middle;whiteSpace=wrap;rounded=0;fontFamily=Times New Roman;fontSize=12;fontStyle=0;labelPosition=center;verticalLabelPosition=middle;spacing=0;" parent="1" vertex="1">
          <mxGeometry x="389.99999999999994" y="452.16" width="106.3" height="30" as="geometry" />
        </mxCell>
        <mxCell id="fJmmpFzyFAi8Mp6fvbiu-37" value="" style="whiteSpace=wrap;html=1;aspect=fixed;fontFamily=Times New Roman;fillStyle=auto;fillColor=#CCCCCC;" parent="1" vertex="1">
          <mxGeometry x="545.5" y="526.1199999999999" width="10" height="10" as="geometry" />
        </mxCell>
        <mxCell id="fJmmpFzyFAi8Mp6fvbiu-38" value="&lt;p style=&quot;line-height: 100%;&quot;&gt;&lt;font style=&quot;font-size: 10px;&quot;&gt;Weight Update&lt;/font&gt;&lt;/p&gt;" style="text;html=1;align=center;verticalAlign=middle;whiteSpace=wrap;rounded=0;fontFamily=Times New Roman;" parent="1" vertex="1">
          <mxGeometry x="554.5" y="525.0399999999998" width="71" height="10" as="geometry" />
        </mxCell>
        <mxCell id="fJmmpFzyFAi8Mp6fvbiu-40" value="&lt;b&gt;(c) GEMINI&lt;/b&gt;" style="text;html=1;align=center;verticalAlign=middle;whiteSpace=wrap;rounded=0;fontFamily=Times New Roman;" parent="1" vertex="1">
          <mxGeometry x="407.67" y="639.08" width="76" height="30" as="geometry" />
        </mxCell>
        <mxCell id="fJmmpFzyFAi8Mp6fvbiu-69" value="" style="endArrow=classic;html=1;rounded=0;" parent="1" edge="1">
          <mxGeometry width="50" height="50" relative="1" as="geometry">
            <mxPoint x="310" y="645" as="sourcePoint" />
            <mxPoint x="613" y="644" as="targetPoint" />
          </mxGeometry>
        </mxCell>
        <mxCell id="fJmmpFzyFAi8Mp6fvbiu-70" value="&lt;p style=&quot;line-height: 100%;&quot;&gt;&lt;font style=&quot;font-size: 10px;&quot;&gt;Time&lt;/font&gt;&lt;/p&gt;" style="text;html=1;align=center;verticalAlign=middle;whiteSpace=wrap;rounded=0;fontFamily=Times New Roman;" parent="1" vertex="1">
          <mxGeometry x="581" y="649.08" width="50" height="10" as="geometry" />
        </mxCell>
        <mxCell id="fJmmpFzyFAi8Mp6fvbiu-71" value="1" style="whiteSpace=wrap;fontSize=12;fontFamily=Times New Roman;fontStyle=1;labelPosition=center;verticalLabelPosition=middle;align=center;verticalAlign=middle;spacing=0;" parent="1" vertex="1">
          <mxGeometry x="310" y="582" width="20" height="10" as="geometry" />
        </mxCell>
        <mxCell id="fJmmpFzyFAi8Mp6fvbiu-72" value="1" style="whiteSpace=wrap;fontSize=12;fontFamily=Times New Roman;fontStyle=1;labelPosition=center;verticalLabelPosition=middle;align=center;verticalAlign=middle;spacing=0;fillColor=#CCCCCC;" parent="1" vertex="1">
          <mxGeometry x="430" y="582" width="20" height="10" as="geometry" />
        </mxCell>
        <mxCell id="fJmmpFzyFAi8Mp6fvbiu-73" value="1" style="whiteSpace=wrap;fillColor=#fff2cc;fontSize=12;fontFamily=Times New Roman;fontStyle=1;spacing=0;strokeColor=#d6b656;" parent="1" vertex="1">
          <mxGeometry x="310" y="598" width="20" height="10" as="geometry" />
        </mxCell>
        <mxCell id="fJmmpFzyFAi8Mp6fvbiu-101" value="&lt;p style=&quot;line-height: 100%;&quot;&gt;&lt;font style=&quot;font-size: 10px;&quot;&gt;Time&lt;/font&gt;&lt;/p&gt;" style="text;html=1;align=center;verticalAlign=middle;whiteSpace=wrap;rounded=0;fontFamily=Times New Roman;" parent="1" vertex="1">
          <mxGeometry x="506.5" y="555" width="50" height="10" as="geometry" />
        </mxCell>
        <mxCell id="fJmmpFzyFAi8Mp6fvbiu-102" value="" style="endArrow=classic;html=1;rounded=0;" parent="1" edge="1">
          <mxGeometry width="50" height="50" relative="1" as="geometry">
            <mxPoint x="309.6" y="459.03999999999996" as="sourcePoint" />
            <mxPoint x="572" y="459.0799999999999" as="targetPoint" />
          </mxGeometry>
        </mxCell>
        <mxCell id="fJmmpFzyFAi8Mp6fvbiu-103" value="&lt;p style=&quot;line-height: 100%;&quot;&gt;&lt;font style=&quot;font-size: 10px;&quot;&gt;Time&lt;/font&gt;&lt;/p&gt;" style="text;html=1;align=center;verticalAlign=middle;whiteSpace=wrap;rounded=0;fontFamily=Times New Roman;" parent="1" vertex="1">
          <mxGeometry x="538.04" y="463.15999999999997" width="50" height="10" as="geometry" />
        </mxCell>
        <mxCell id="N47SgGlcZyZ_UvSWA4Ys-2" value="1" style="whiteSpace=wrap;fillColor=#fff2cc;fontSize=12;fontFamily=Times New Roman;fontStyle=1;spacing=0;strokeColor=#d6b656;" parent="1" vertex="1">
          <mxGeometry x="350" y="598" width="20" height="10" as="geometry" />
        </mxCell>
        <mxCell id="N47SgGlcZyZ_UvSWA4Ys-3" value="1" style="whiteSpace=wrap;fillColor=#fff2cc;fontSize=12;fontFamily=Times New Roman;fontStyle=1;spacing=0;strokeColor=#d6b656;" parent="1" vertex="1">
          <mxGeometry x="390" y="598" width="20" height="10" as="geometry" />
        </mxCell>
        <mxCell id="N47SgGlcZyZ_UvSWA4Ys-6" value="&lt;span style=&quot;font-weight: 700;&quot;&gt;1&lt;/span&gt;" style="whiteSpace=wrap;html=1;fillColor=#f8cecc;fontFamily=Times New Roman;strokeColor=#b85450;" parent="1" vertex="1">
          <mxGeometry x="325.09999999999997" y="614" width="20" height="10" as="geometry" />
        </mxCell>
        <mxCell id="N47SgGlcZyZ_UvSWA4Ys-7" value="1" style="whiteSpace=wrap;fillColor=#e1d5e7;fontSize=12;fontFamily=Times New Roman;fontStyle=1;labelPosition=center;verticalLabelPosition=middle;align=center;verticalAlign=middle;spacing=0;strokeColor=#9673a6;" parent="1" vertex="1">
          <mxGeometry x="330" y="629" width="20" height="10" as="geometry" />
        </mxCell>
        <mxCell id="c6i5zfgX7v_MsmKuw-x--34" value="1" style="whiteSpace=wrap;fontSize=12;fontFamily=Times New Roman;fontStyle=1;labelPosition=center;verticalLabelPosition=middle;align=center;verticalAlign=middle;spacing=0;" parent="1" vertex="1">
          <mxGeometry x="350" y="582" width="20" height="10" as="geometry" />
        </mxCell>
        <mxCell id="c6i5zfgX7v_MsmKuw-x--35" value="1" style="whiteSpace=wrap;fontSize=12;fontFamily=Times New Roman;fontStyle=1;labelPosition=center;verticalLabelPosition=middle;align=center;verticalAlign=middle;spacing=0;" parent="1" vertex="1">
          <mxGeometry x="390" y="582" width="20" height="10" as="geometry" />
        </mxCell>
        <mxCell id="N47SgGlcZyZ_UvSWA4Ys-16" value="&lt;span style=&quot;font-weight: 700;&quot;&gt;2&lt;/span&gt;" style="whiteSpace=wrap;html=1;fillColor=#f8cecc;fontFamily=Times New Roman;strokeColor=#b85450;" parent="1" vertex="1">
          <mxGeometry x="505.0999999999999" y="614.08" width="20" height="10" as="geometry" />
        </mxCell>
        <mxCell id="N47SgGlcZyZ_UvSWA4Ys-17" value="2" style="whiteSpace=wrap;fillColor=#e1d5e7;fontSize=12;fontFamily=Times New Roman;fontStyle=1;labelPosition=center;verticalLabelPosition=middle;align=center;verticalAlign=middle;spacing=0;strokeColor=#9673a6;" parent="1" vertex="1">
          <mxGeometry x="510" y="629.08" width="20" height="10" as="geometry" />
        </mxCell>
        <mxCell id="N47SgGlcZyZ_UvSWA4Ys-18" value="2" style="whiteSpace=wrap;fontSize=12;fontFamily=Times New Roman;fontStyle=1;labelPosition=center;verticalLabelPosition=middle;align=center;verticalAlign=middle;spacing=0;" parent="1" vertex="1">
          <mxGeometry x="450" y="582.08" width="20" height="10" as="geometry" />
        </mxCell>
        <mxCell id="N47SgGlcZyZ_UvSWA4Ys-19" value="2" style="whiteSpace=wrap;fontSize=12;fontFamily=Times New Roman;fontStyle=1;labelPosition=center;verticalLabelPosition=middle;align=center;verticalAlign=middle;spacing=0;fillColor=#CCCCCC;" parent="1" vertex="1">
          <mxGeometry x="570.5" y="582.0799999999999" width="20" height="10" as="geometry" />
        </mxCell>
        <mxCell id="N47SgGlcZyZ_UvSWA4Ys-20" value="2" style="whiteSpace=wrap;fillColor=#fff2cc;fontSize=12;fontFamily=Times New Roman;fontStyle=1;spacing=0;strokeColor=#d6b656;" parent="1" vertex="1">
          <mxGeometry x="450" y="598.08" width="20" height="10" as="geometry" />
        </mxCell>
        <mxCell id="N47SgGlcZyZ_UvSWA4Ys-21" value="2" style="whiteSpace=wrap;fillColor=#fff2cc;fontSize=12;fontFamily=Times New Roman;fontStyle=1;spacing=0;strokeColor=#d6b656;" parent="1" vertex="1">
          <mxGeometry x="490" y="598.08" width="20" height="10" as="geometry" />
        </mxCell>
        <mxCell id="N47SgGlcZyZ_UvSWA4Ys-22" value="2" style="whiteSpace=wrap;fillColor=#fff2cc;fontSize=12;fontFamily=Times New Roman;fontStyle=1;spacing=0;strokeColor=#d6b656;" parent="1" vertex="1">
          <mxGeometry x="530" y="598.08" width="20" height="10" as="geometry" />
        </mxCell>
        <mxCell id="N47SgGlcZyZ_UvSWA4Ys-23" value="&lt;span style=&quot;font-weight: 700;&quot;&gt;2&lt;/span&gt;" style="whiteSpace=wrap;html=1;fillColor=#f8cecc;fontFamily=Times New Roman;strokeColor=#b85450;" parent="1" vertex="1">
          <mxGeometry x="465.09999999999997" y="614.08" width="20" height="10" as="geometry" />
        </mxCell>
        <mxCell id="N47SgGlcZyZ_UvSWA4Ys-24" value="2" style="whiteSpace=wrap;fillColor=#e1d5e7;fontSize=12;fontFamily=Times New Roman;fontStyle=1;labelPosition=center;verticalLabelPosition=middle;align=center;verticalAlign=middle;spacing=0;strokeColor=#9673a6;" parent="1" vertex="1">
          <mxGeometry x="470" y="629.08" width="20" height="10" as="geometry" />
        </mxCell>
        <mxCell id="N47SgGlcZyZ_UvSWA4Ys-28" value="" style="endArrow=none;html=1;rounded=0;dashed=1;" parent="1" edge="1">
          <mxGeometry width="50" height="50" relative="1" as="geometry">
            <mxPoint x="530" y="644" as="sourcePoint" />
            <mxPoint x="530" y="575" as="targetPoint" />
          </mxGeometry>
        </mxCell>
        <mxCell id="c6i5zfgX7v_MsmKuw-x--36" value="2" style="whiteSpace=wrap;fontSize=12;fontFamily=Times New Roman;fontStyle=1;labelPosition=center;verticalLabelPosition=middle;align=center;verticalAlign=middle;spacing=0;" parent="1" vertex="1">
          <mxGeometry x="490" y="582.08" width="20" height="10" as="geometry" />
        </mxCell>
        <mxCell id="c6i5zfgX7v_MsmKuw-x--37" value="2" style="whiteSpace=wrap;fontSize=12;fontFamily=Times New Roman;fontStyle=1;labelPosition=center;verticalLabelPosition=middle;align=center;verticalAlign=middle;spacing=0;" parent="1" vertex="1">
          <mxGeometry x="529.8" y="582.08" width="20" height="10" as="geometry" />
        </mxCell>
        <mxCell id="c6i5zfgX7v_MsmKuw-x--40" value="&lt;span style=&quot;font-weight: 700;&quot;&gt;1&lt;/span&gt;" style="whiteSpace=wrap;html=1;fillColor=#f8cecc;fontFamily=Times New Roman;strokeColor=#b85450;" parent="1" vertex="1">
          <mxGeometry x="405.09999999999997" y="614.08" width="20" height="10" as="geometry" />
        </mxCell>
        <mxCell id="c6i5zfgX7v_MsmKuw-x--41" value="1" style="whiteSpace=wrap;fillColor=#e1d5e7;fontSize=12;fontFamily=Times New Roman;fontStyle=1;labelPosition=center;verticalLabelPosition=middle;align=center;verticalAlign=middle;spacing=0;strokeColor=#9673a6;" parent="1" vertex="1">
          <mxGeometry x="410" y="629.08" width="20" height="10" as="geometry" />
        </mxCell>
        <mxCell id="c6i5zfgX7v_MsmKuw-x--42" value="" style="endArrow=none;html=1;rounded=0;dashed=1;" parent="1" edge="1">
          <mxGeometry width="50" height="50" relative="1" as="geometry">
            <mxPoint x="430.0999999999999" y="644.08" as="sourcePoint" />
            <mxPoint x="430" y="574.58" as="targetPoint" />
          </mxGeometry>
        </mxCell>
        <mxCell id="c6i5zfgX7v_MsmKuw-x--43" value="&lt;span style=&quot;font-weight: 700;&quot;&gt;2&lt;/span&gt;" style="whiteSpace=wrap;html=1;fillColor=#f8cecc;fontFamily=Times New Roman;strokeColor=#b85450;" parent="1" vertex="1">
          <mxGeometry x="545.4999999999999" y="614" width="20" height="10" as="geometry" />
        </mxCell>
        <mxCell id="c6i5zfgX7v_MsmKuw-x--44" value="2" style="whiteSpace=wrap;fillColor=#e1d5e7;fontSize=12;fontFamily=Times New Roman;fontStyle=1;labelPosition=center;verticalLabelPosition=middle;align=center;verticalAlign=middle;spacing=0;strokeColor=#9673a6;" parent="1" vertex="1">
          <mxGeometry x="550.4" y="629" width="20" height="10" as="geometry" />
        </mxCell>
        <mxCell id="N47SgGlcZyZ_UvSWA4Ys-29" value="" style="endArrow=none;html=1;rounded=0;dashed=1;" parent="1" edge="1">
          <mxGeometry width="50" height="50" relative="1" as="geometry">
            <mxPoint x="550.0999999999999" y="644" as="sourcePoint" />
            <mxPoint x="550" y="574.08" as="targetPoint" />
          </mxGeometry>
        </mxCell>
        <mxCell id="c6i5zfgX7v_MsmKuw-x--45" value="" style="endArrow=none;html=1;rounded=0;dashed=1;" parent="1" edge="1">
          <mxGeometry width="50" height="50" relative="1" as="geometry">
            <mxPoint x="490.1" y="644" as="sourcePoint" />
            <mxPoint x="490.1" y="575" as="targetPoint" />
          </mxGeometry>
        </mxCell>
        <mxCell id="c6i5zfgX7v_MsmKuw-x--46" value="" style="endArrow=none;html=1;rounded=0;dashed=1;" parent="1" edge="1">
          <mxGeometry width="50" height="50" relative="1" as="geometry">
            <mxPoint x="470" y="644" as="sourcePoint" />
            <mxPoint x="470" y="575" as="targetPoint" />
          </mxGeometry>
        </mxCell>
        <mxCell id="c6i5zfgX7v_MsmKuw-x--47" value="" style="endArrow=none;html=1;rounded=0;dashed=1;" parent="1" edge="1">
          <mxGeometry width="50" height="50" relative="1" as="geometry">
            <mxPoint x="450" y="644.08" as="sourcePoint" />
            <mxPoint x="450" y="575.08" as="targetPoint" />
          </mxGeometry>
        </mxCell>
        <mxCell id="c6i5zfgX7v_MsmKuw-x--50" value="" style="endArrow=none;html=1;rounded=0;dashed=1;" parent="1" edge="1">
          <mxGeometry width="50" height="50" relative="1" as="geometry">
            <mxPoint x="410.0999999999999" y="645" as="sourcePoint" />
            <mxPoint x="410" y="575.5" as="targetPoint" />
          </mxGeometry>
        </mxCell>
        <mxCell id="c6i5zfgX7v_MsmKuw-x--51" value="" style="endArrow=none;html=1;rounded=0;dashed=1;" parent="1" edge="1">
          <mxGeometry width="50" height="50" relative="1" as="geometry">
            <mxPoint x="390.0999999999999" y="645" as="sourcePoint" />
            <mxPoint x="390" y="575.5" as="targetPoint" />
          </mxGeometry>
        </mxCell>
        <mxCell id="c6i5zfgX7v_MsmKuw-x--52" value="" style="endArrow=none;html=1;rounded=0;dashed=1;" parent="1" edge="1">
          <mxGeometry width="50" height="50" relative="1" as="geometry">
            <mxPoint x="370.0999999999999" y="645" as="sourcePoint" />
            <mxPoint x="370" y="575.5" as="targetPoint" />
          </mxGeometry>
        </mxCell>
        <mxCell id="c6i5zfgX7v_MsmKuw-x--53" value="" style="endArrow=none;html=1;rounded=0;dashed=1;" parent="1" edge="1">
          <mxGeometry width="50" height="50" relative="1" as="geometry">
            <mxPoint x="350.0999999999999" y="645.08" as="sourcePoint" />
            <mxPoint x="350" y="575.58" as="targetPoint" />
          </mxGeometry>
        </mxCell>
        <mxCell id="c6i5zfgX7v_MsmKuw-x--54" value="" style="endArrow=none;html=1;rounded=0;dashed=1;" parent="1" edge="1">
          <mxGeometry width="50" height="50" relative="1" as="geometry">
            <mxPoint x="329.9899999999999" y="645" as="sourcePoint" />
            <mxPoint x="329.89" y="575.5" as="targetPoint" />
          </mxGeometry>
        </mxCell>
        <mxCell id="c6i5zfgX7v_MsmKuw-x--55" value="" style="endArrow=none;html=1;rounded=0;dashed=1;" parent="1" edge="1">
          <mxGeometry width="50" height="50" relative="1" as="geometry">
            <mxPoint x="570.4999999999999" y="644.08" as="sourcePoint" />
            <mxPoint x="570.4" y="574.1600000000001" as="targetPoint" />
          </mxGeometry>
        </mxCell>
        <mxCell id="c6i5zfgX7v_MsmKuw-x--56" value="3" style="whiteSpace=wrap;fillColor=#fff2cc;fontSize=12;fontFamily=Times New Roman;fontStyle=1;spacing=0;strokeColor=#d6b656;" parent="1" vertex="1">
          <mxGeometry x="470.27" y="687.5" width="20" height="10" as="geometry" />
        </mxCell>
        <mxCell id="c6i5zfgX7v_MsmKuw-x--57" value="2" style="whiteSpace=wrap;fillColor=#fff2cc;fontSize=12;fontFamily=Times New Roman;fontStyle=1;spacing=0;strokeColor=#d6b656;" parent="1" vertex="1">
          <mxGeometry x="390.27" y="687.5" width="20" height="10" as="geometry" />
        </mxCell>
        <mxCell id="c6i5zfgX7v_MsmKuw-x--58" value="1" style="whiteSpace=wrap;fontSize=12;fontFamily=Times New Roman;fontStyle=1;labelPosition=center;verticalLabelPosition=middle;align=center;verticalAlign=middle;spacing=0;" parent="1" vertex="1">
          <mxGeometry x="310.27" y="671" width="60" height="10" as="geometry" />
        </mxCell>
        <mxCell id="c6i5zfgX7v_MsmKuw-x--59" value="1" style="whiteSpace=wrap;fillColor=#fff2cc;fontSize=12;fontFamily=Times New Roman;fontStyle=1;spacing=0;strokeColor=#d6b656;" parent="1" vertex="1">
          <mxGeometry x="360.03999999999996" y="687.5" width="20" height="10" as="geometry" />
        </mxCell>
        <mxCell id="c6i5zfgX7v_MsmKuw-x--60" value="1" style="whiteSpace=wrap;fillColor=#fff2cc;fontSize=12;fontFamily=Times New Roman;fontStyle=1;spacing=0;strokeColor=#d6b656;" parent="1" vertex="1">
          <mxGeometry x="335.14" y="687.5" width="20" height="10" as="geometry" />
        </mxCell>
        <mxCell id="c6i5zfgX7v_MsmKuw-x--61" value="&lt;b&gt;(d) NCheck&lt;/b&gt;" style="text;html=1;align=center;verticalAlign=middle;whiteSpace=wrap;rounded=0;fontFamily=Times New Roman;spacing=0;" parent="1" vertex="1">
          <mxGeometry x="368.1700000000001" y="719.5799999999999" width="155" height="21.54" as="geometry" />
        </mxCell>
        <mxCell id="c6i5zfgX7v_MsmKuw-x--62" value="" style="endArrow=classic;html=1;rounded=0;" parent="1" edge="1">
          <mxGeometry width="50" height="50" relative="1" as="geometry">
            <mxPoint x="310.1700000000001" y="720.31" as="sourcePoint" />
            <mxPoint x="575.27" y="720.3899999999999" as="targetPoint" />
          </mxGeometry>
        </mxCell>
        <mxCell id="c6i5zfgX7v_MsmKuw-x--63" value="&lt;p style=&quot;line-height: 100%;&quot;&gt;&lt;font style=&quot;font-size: 10px;&quot;&gt;Time&lt;/font&gt;&lt;/p&gt;" style="text;html=1;align=center;verticalAlign=middle;whiteSpace=wrap;rounded=0;fontFamily=Times New Roman;" parent="1" vertex="1">
          <mxGeometry x="545.5" y="725.3499999999999" width="50" height="10" as="geometry" />
        </mxCell>
        <mxCell id="c6i5zfgX7v_MsmKuw-x--64" value="1" style="whiteSpace=wrap;fillColor=#fff2cc;fontSize=12;fontFamily=Times New Roman;fontStyle=1;spacing=0;strokeColor=#d6b656;" parent="1" vertex="1">
          <mxGeometry x="310.27" y="687.5" width="20" height="10" as="geometry" />
        </mxCell>
        <mxCell id="c6i5zfgX7v_MsmKuw-x--71" value="1" style="whiteSpace=wrap;fontSize=12;fontFamily=Times New Roman;fontStyle=1;labelPosition=center;verticalLabelPosition=middle;align=center;verticalAlign=middle;spacing=0;fillColor=#CCCCCC;" parent="1" vertex="1">
          <mxGeometry x="370.27" y="671" width="20" height="10" as="geometry" />
        </mxCell>
        <mxCell id="c6i5zfgX7v_MsmKuw-x--72" value="2" style="whiteSpace=wrap;fontSize=12;fontFamily=Times New Roman;fontStyle=1;labelPosition=center;verticalLabelPosition=middle;align=center;verticalAlign=middle;spacing=0;" parent="1" vertex="1">
          <mxGeometry x="390.27" y="671" width="60" height="10" as="geometry" />
        </mxCell>
        <mxCell id="c6i5zfgX7v_MsmKuw-x--73" value="2" style="whiteSpace=wrap;fillColor=#fff2cc;fontSize=12;fontFamily=Times New Roman;fontStyle=1;spacing=0;strokeColor=#d6b656;" parent="1" vertex="1">
          <mxGeometry x="440.03999999999996" y="687.5" width="20" height="10" as="geometry" />
        </mxCell>
        <mxCell id="c6i5zfgX7v_MsmKuw-x--74" value="2" style="whiteSpace=wrap;fillColor=#fff2cc;fontSize=12;fontFamily=Times New Roman;fontStyle=1;spacing=0;strokeColor=#d6b656;" parent="1" vertex="1">
          <mxGeometry x="415.14" y="687.5" width="20" height="10" as="geometry" />
        </mxCell>
        <mxCell id="c6i5zfgX7v_MsmKuw-x--81" value="2" style="whiteSpace=wrap;fontSize=12;fontFamily=Times New Roman;fontStyle=1;labelPosition=center;verticalLabelPosition=middle;align=center;verticalAlign=middle;spacing=0;fillColor=#CCCCCC;" parent="1" vertex="1">
          <mxGeometry x="450.27" y="671" width="20" height="10" as="geometry" />
        </mxCell>
        <mxCell id="c6i5zfgX7v_MsmKuw-x--82" value="3" style="whiteSpace=wrap;fontSize=12;fontFamily=Times New Roman;fontStyle=1;labelPosition=center;verticalLabelPosition=middle;align=center;verticalAlign=middle;spacing=0;" parent="1" vertex="1">
          <mxGeometry x="470.27" y="671" width="60" height="10" as="geometry" />
        </mxCell>
        <mxCell id="c6i5zfgX7v_MsmKuw-x--83" value="3" style="whiteSpace=wrap;fillColor=#fff2cc;fontSize=12;fontFamily=Times New Roman;fontStyle=1;spacing=0;strokeColor=#d6b656;" parent="1" vertex="1">
          <mxGeometry x="520.04" y="687.5" width="20" height="10" as="geometry" />
        </mxCell>
        <mxCell id="c6i5zfgX7v_MsmKuw-x--84" value="3" style="whiteSpace=wrap;fillColor=#fff2cc;fontSize=12;fontFamily=Times New Roman;fontStyle=1;spacing=0;strokeColor=#d6b656;" parent="1" vertex="1">
          <mxGeometry x="495.14" y="687.5" width="20" height="10" as="geometry" />
        </mxCell>
        <mxCell id="c6i5zfgX7v_MsmKuw-x--91" value="3" style="whiteSpace=wrap;fontSize=12;fontFamily=Times New Roman;fontStyle=1;labelPosition=center;verticalLabelPosition=middle;align=center;verticalAlign=middle;spacing=0;fillColor=#CCCCCC;" parent="1" vertex="1">
          <mxGeometry x="530.27" y="671" width="20" height="10" as="geometry" />
        </mxCell>
        <mxCell id="c6i5zfgX7v_MsmKuw-x--92" value="1" style="whiteSpace=wrap;fillColor=#fff2cc;fontSize=12;fontFamily=Times New Roman;fontStyle=1;spacing=0;strokeColor=#d6b656;dashed=1;" parent="1" vertex="1">
          <mxGeometry x="310.27" y="409" width="39.73" height="10" as="geometry" />
        </mxCell>
        <mxCell id="fJmmpFzyFAi8Mp6fvbiu-114" value="" style="endArrow=none;html=1;rounded=0;dashed=1;" parent="1" edge="1">
          <mxGeometry width="50" height="50" relative="1" as="geometry">
            <mxPoint x="310" y="721" as="sourcePoint" />
            <mxPoint x="310" y="395" as="targetPoint" />
          </mxGeometry>
        </mxCell>
        <mxCell id="fJmmpFzyFAi8Mp6fvbiu-107" value="" style="endArrow=none;html=1;rounded=0;dashed=1;" parent="1" edge="1">
          <mxGeometry width="50" height="50" relative="1" as="geometry">
            <mxPoint x="350" y="458" as="sourcePoint" />
            <mxPoint x="350" y="392" as="targetPoint" />
          </mxGeometry>
        </mxCell>
        <mxCell id="hsxIx1a9JryG6VxlevUh-2" value="2" style="whiteSpace=wrap;fontSize=12;fontFamily=Times New Roman;fontStyle=1;labelPosition=center;verticalLabelPosition=middle;align=center;verticalAlign=middle;spacing=0;" vertex="1" parent="1">
          <mxGeometry x="350" y="392" width="30" height="10" as="geometry" />
        </mxCell>
        <mxCell id="hsxIx1a9JryG6VxlevUh-3" value="2" style="whiteSpace=wrap;fontSize=12;fontFamily=Times New Roman;fontStyle=1;labelPosition=center;verticalLabelPosition=middle;align=center;verticalAlign=middle;spacing=0;fillColor=#CCCCCC;" vertex="1" parent="1">
          <mxGeometry x="390" y="392" width="10" height="10" as="geometry" />
        </mxCell>
        <mxCell id="hsxIx1a9JryG6VxlevUh-4" value="3" style="whiteSpace=wrap;fontSize=12;fontFamily=Times New Roman;fontStyle=1;labelPosition=center;verticalLabelPosition=middle;align=center;verticalAlign=middle;spacing=0;" vertex="1" parent="1">
          <mxGeometry x="400" y="392" width="30" height="10" as="geometry" />
        </mxCell>
        <mxCell id="hsxIx1a9JryG6VxlevUh-5" value="3" style="whiteSpace=wrap;fontSize=12;fontFamily=Times New Roman;fontStyle=1;labelPosition=center;verticalLabelPosition=middle;align=center;verticalAlign=middle;spacing=0;fillColor=#CCCCCC;" vertex="1" parent="1">
          <mxGeometry x="430" y="392" width="10" height="10" as="geometry" />
        </mxCell>
        <mxCell id="hsxIx1a9JryG6VxlevUh-6" value="4" style="whiteSpace=wrap;fontSize=12;fontFamily=Times New Roman;fontStyle=1;labelPosition=center;verticalLabelPosition=middle;align=center;verticalAlign=middle;spacing=0;" vertex="1" parent="1">
          <mxGeometry x="440" y="392" width="30" height="10" as="geometry" />
        </mxCell>
        <mxCell id="hsxIx1a9JryG6VxlevUh-7" value="5" style="whiteSpace=wrap;fontFamily=Times New Roman;fontSize=12;fontStyle=1;labelPosition=center;verticalLabelPosition=middle;align=center;verticalAlign=middle;spacing=0;" vertex="1" parent="1">
          <mxGeometry x="491" y="391.99999999999994" width="30" height="10" as="geometry" />
        </mxCell>
        <mxCell id="hsxIx1a9JryG6VxlevUh-8" value="5" style="whiteSpace=wrap;fontFamily=Times New Roman;fontSize=12;fontStyle=1;labelPosition=center;verticalLabelPosition=middle;align=center;verticalAlign=middle;spacing=0;fillColor=#CCCCCC;" vertex="1" parent="1">
          <mxGeometry x="521" y="391.99999999999994" width="10" height="10" as="geometry" />
        </mxCell>
        <mxCell id="hsxIx1a9JryG6VxlevUh-9" value="4" style="whiteSpace=wrap;fontSize=12;fontFamily=Times New Roman;fontStyle=1;labelPosition=center;verticalLabelPosition=middle;align=center;verticalAlign=middle;spacing=0;fillColor=#CCCCCC;" vertex="1" parent="1">
          <mxGeometry x="481" y="392" width="10" height="10" as="geometry" />
        </mxCell>
        <mxCell id="hsxIx1a9JryG6VxlevUh-10" value="2" style="whiteSpace=wrap;fillColor=#fff2cc;fontSize=12;fontFamily=Times New Roman;fontStyle=1;spacing=0;strokeColor=#d6b656;dashed=1;" vertex="1" parent="1">
          <mxGeometry x="350.53999999999996" y="409" width="39.73" height="10" as="geometry" />
        </mxCell>
        <mxCell id="hsxIx1a9JryG6VxlevUh-11" value="5" style="whiteSpace=wrap;fillColor=#fff2cc;fontSize=12;fontFamily=Times New Roman;fontStyle=1;spacing=0;strokeColor=#d6b656;dashed=1;" vertex="1" parent="1">
          <mxGeometry x="490.05" y="409" width="39.73" height="10" as="geometry" />
        </mxCell>
        <mxCell id="hsxIx1a9JryG6VxlevUh-12" value="4" style="whiteSpace=wrap;fillColor=#fff2cc;fontSize=12;fontFamily=Times New Roman;fontStyle=1;spacing=0;strokeColor=#d6b656;dashed=1;" vertex="1" parent="1">
          <mxGeometry x="440.71999999999997" y="503.15999999999997" width="39.73" height="10" as="geometry" />
        </mxCell>
        <mxCell id="hsxIx1a9JryG6VxlevUh-13" value="3" style="whiteSpace=wrap;fillColor=#fff2cc;fontSize=12;fontFamily=Times New Roman;fontStyle=1;spacing=0;strokeColor=#d6b656;dashed=1;" vertex="1" parent="1">
          <mxGeometry x="399.99" y="503.15999999999997" width="39.73" height="10" as="geometry" />
        </mxCell>
        <mxCell id="hsxIx1a9JryG6VxlevUh-14" value="1" style="whiteSpace=wrap;fontFamily=Times New Roman;fontSize=12;fontStyle=1;labelPosition=center;verticalLabelPosition=middle;align=center;verticalAlign=middle;spacing=0;" vertex="1" parent="1">
          <mxGeometry x="310.4" y="486.15999999999997" width="30" height="10" as="geometry" />
        </mxCell>
        <mxCell id="hsxIx1a9JryG6VxlevUh-15" value="1" style="whiteSpace=wrap;fillColor=#e1d5e7;fontFamily=Times New Roman;fontSize=12;fontStyle=1;labelPosition=center;verticalLabelPosition=middle;align=center;verticalAlign=middle;spacing=0;strokeColor=#9673a6;" vertex="1" parent="1">
          <mxGeometry x="359.8" y="538.12" width="20" height="10" as="geometry" />
        </mxCell>
        <mxCell id="hsxIx1a9JryG6VxlevUh-16" value="1" style="whiteSpace=wrap;fillColor=#f8cecc;fontFamily=Times New Roman;fontSize=12;fontStyle=1;labelPosition=center;verticalLabelPosition=middle;align=center;verticalAlign=middle;spacing=0;strokeColor=#b85450;" vertex="1" parent="1">
          <mxGeometry x="350.4" y="520.16" width="9.6" height="10" as="geometry" />
        </mxCell>
        <mxCell id="hsxIx1a9JryG6VxlevUh-17" value="1" style="whiteSpace=wrap;fontFamily=Times New Roman;fontSize=12;fontStyle=1;labelPosition=center;verticalLabelPosition=middle;align=center;verticalAlign=middle;spacing=0;fillColor=#CCCCCC;" vertex="1" parent="1">
          <mxGeometry x="340.4" y="486.15999999999997" width="10" height="10" as="geometry" />
        </mxCell>
        <mxCell id="hsxIx1a9JryG6VxlevUh-18" value="" style="endArrow=classic;html=1;rounded=0;" edge="1" parent="1">
          <mxGeometry width="50" height="50" relative="1" as="geometry">
            <mxPoint x="310" y="553.1999999999999" as="sourcePoint" />
            <mxPoint x="540" y="553" as="targetPoint" />
          </mxGeometry>
        </mxCell>
        <mxCell id="hsxIx1a9JryG6VxlevUh-21" value="1" style="whiteSpace=wrap;fillColor=#fff2cc;fontSize=12;fontFamily=Times New Roman;fontStyle=1;spacing=0;strokeColor=#d6b656;dashed=1;" vertex="1" parent="1">
          <mxGeometry x="310.66999999999996" y="503.15999999999997" width="39.73" height="10" as="geometry" />
        </mxCell>
        <mxCell id="hsxIx1a9JryG6VxlevUh-22" value="2" style="whiteSpace=wrap;fontSize=12;fontFamily=Times New Roman;fontStyle=1;labelPosition=center;verticalLabelPosition=middle;align=center;verticalAlign=middle;spacing=0;" vertex="1" parent="1">
          <mxGeometry x="350.4" y="486.15999999999997" width="30" height="10" as="geometry" />
        </mxCell>
        <mxCell id="hsxIx1a9JryG6VxlevUh-23" value="2" style="whiteSpace=wrap;fontSize=12;fontFamily=Times New Roman;fontStyle=1;labelPosition=center;verticalLabelPosition=middle;align=center;verticalAlign=middle;spacing=0;fillColor=#CCCCCC;" vertex="1" parent="1">
          <mxGeometry x="390.4" y="486.15999999999997" width="10" height="10" as="geometry" />
        </mxCell>
        <mxCell id="hsxIx1a9JryG6VxlevUh-24" value="3" style="whiteSpace=wrap;fontSize=12;fontFamily=Times New Roman;fontStyle=1;labelPosition=center;verticalLabelPosition=middle;align=center;verticalAlign=middle;spacing=0;" vertex="1" parent="1">
          <mxGeometry x="400.4" y="486.15999999999997" width="30" height="10" as="geometry" />
        </mxCell>
        <mxCell id="hsxIx1a9JryG6VxlevUh-25" value="3" style="whiteSpace=wrap;fontSize=12;fontFamily=Times New Roman;fontStyle=1;labelPosition=center;verticalLabelPosition=middle;align=center;verticalAlign=middle;spacing=0;fillColor=#CCCCCC;" vertex="1" parent="1">
          <mxGeometry x="430.4" y="486.15999999999997" width="10" height="10" as="geometry" />
        </mxCell>
        <mxCell id="hsxIx1a9JryG6VxlevUh-26" value="4" style="whiteSpace=wrap;fontSize=12;fontFamily=Times New Roman;fontStyle=1;labelPosition=center;verticalLabelPosition=middle;align=center;verticalAlign=middle;spacing=0;" vertex="1" parent="1">
          <mxGeometry x="440.4" y="486.15999999999997" width="30" height="10" as="geometry" />
        </mxCell>
        <mxCell id="hsxIx1a9JryG6VxlevUh-27" value="5" style="whiteSpace=wrap;fontFamily=Times New Roman;fontSize=12;fontStyle=1;labelPosition=center;verticalLabelPosition=middle;align=center;verticalAlign=middle;spacing=0;" vertex="1" parent="1">
          <mxGeometry x="490.4" y="486.15999999999997" width="30" height="10" as="geometry" />
        </mxCell>
        <mxCell id="hsxIx1a9JryG6VxlevUh-28" value="5" style="whiteSpace=wrap;fontFamily=Times New Roman;fontSize=12;fontStyle=1;labelPosition=center;verticalLabelPosition=middle;align=center;verticalAlign=middle;spacing=0;fillColor=#CCCCCC;" vertex="1" parent="1">
          <mxGeometry x="520.4" y="486.15999999999997" width="10" height="10" as="geometry" />
        </mxCell>
        <mxCell id="hsxIx1a9JryG6VxlevUh-29" value="4" style="whiteSpace=wrap;fontSize=12;fontFamily=Times New Roman;fontStyle=1;labelPosition=center;verticalLabelPosition=middle;align=center;verticalAlign=middle;spacing=0;fillColor=#CCCCCC;" vertex="1" parent="1">
          <mxGeometry x="480.4" y="486.15999999999997" width="10" height="10" as="geometry" />
        </mxCell>
        <mxCell id="hsxIx1a9JryG6VxlevUh-30" value="2" style="whiteSpace=wrap;fillColor=#fff2cc;fontSize=12;fontFamily=Times New Roman;fontStyle=1;spacing=0;strokeColor=#d6b656;dashed=1;" vertex="1" parent="1">
          <mxGeometry x="350.93999999999994" y="503.15999999999997" width="39.73" height="10" as="geometry" />
        </mxCell>
        <mxCell id="hsxIx1a9JryG6VxlevUh-31" value="5" style="whiteSpace=wrap;fillColor=#fff2cc;fontSize=12;fontFamily=Times New Roman;fontStyle=1;spacing=0;strokeColor=#d6b656;dashed=1;" vertex="1" parent="1">
          <mxGeometry x="489.45" y="503.15999999999997" width="39.73" height="10" as="geometry" />
        </mxCell>
        <mxCell id="hsxIx1a9JryG6VxlevUh-32" value="&lt;b&gt;(b) LightCheck&lt;/b&gt;" style="text;html=1;align=center;verticalAlign=middle;whiteSpace=wrap;rounded=0;fontFamily=Times New Roman;" vertex="1" parent="1">
          <mxGeometry x="404.4" y="547.16" width="85.6" height="30" as="geometry" />
        </mxCell>
        <mxCell id="fJmmpFzyFAi8Mp6fvbiu-108" value="" style="endArrow=none;html=1;rounded=0;dashed=1;" parent="1" edge="1">
          <mxGeometry width="50" height="50" relative="1" as="geometry">
            <mxPoint x="390" y="459" as="sourcePoint" />
            <mxPoint x="390" y="392" as="targetPoint" />
          </mxGeometry>
        </mxCell>
        <mxCell id="hsxIx1a9JryG6VxlevUh-33" value="1" style="whiteSpace=wrap;fillColor=#f8cecc;fontFamily=Times New Roman;fontSize=12;fontStyle=1;labelPosition=center;verticalLabelPosition=middle;align=center;verticalAlign=middle;spacing=0;strokeColor=#b85450;" vertex="1" parent="1">
          <mxGeometry x="360" y="520.16" width="10" height="10" as="geometry" />
        </mxCell>
        <mxCell id="hsxIx1a9JryG6VxlevUh-34" value="1" style="whiteSpace=wrap;fillColor=#e1d5e7;fontFamily=Times New Roman;fontSize=12;fontStyle=1;labelPosition=center;verticalLabelPosition=middle;align=center;verticalAlign=middle;spacing=0;strokeColor=#9673a6;" vertex="1" parent="1">
          <mxGeometry x="379.67" y="538.12" width="19.33" height="10" as="geometry" />
        </mxCell>
        <mxCell id="hsxIx1a9JryG6VxlevUh-35" value="1" style="whiteSpace=wrap;fillColor=#f8cecc;fontFamily=Times New Roman;fontSize=12;fontStyle=1;labelPosition=center;verticalLabelPosition=middle;align=center;verticalAlign=middle;spacing=0;strokeColor=#b85450;" vertex="1" parent="1">
          <mxGeometry x="370" y="520.16" width="10" height="10" as="geometry" />
        </mxCell>
        <mxCell id="hsxIx1a9JryG6VxlevUh-36" value="1" style="whiteSpace=wrap;fillColor=#f8cecc;fontFamily=Times New Roman;fontSize=12;fontStyle=1;labelPosition=center;verticalLabelPosition=middle;align=center;verticalAlign=middle;spacing=0;strokeColor=#b85450;" vertex="1" parent="1">
          <mxGeometry x="379.99" y="520.16" width="10.01" height="10" as="geometry" />
        </mxCell>
        <mxCell id="hsxIx1a9JryG6VxlevUh-37" value="1" style="whiteSpace=wrap;fillColor=#e1d5e7;fontFamily=Times New Roman;fontSize=12;fontStyle=1;labelPosition=center;verticalLabelPosition=middle;align=center;verticalAlign=middle;spacing=0;strokeColor=#9673a6;" vertex="1" parent="1">
          <mxGeometry x="398.99" y="538.12" width="19.33" height="10" as="geometry" />
        </mxCell>
        <mxCell id="hsxIx1a9JryG6VxlevUh-38" value="1" style="whiteSpace=wrap;fillColor=#e1d5e7;fontFamily=Times New Roman;fontSize=12;fontStyle=1;labelPosition=center;verticalLabelPosition=middle;align=center;verticalAlign=middle;spacing=0;strokeColor=#9673a6;" vertex="1" parent="1">
          <mxGeometry x="418.32" y="538.12" width="19.33" height="10" as="geometry" />
        </mxCell>
        <mxCell id="hsxIx1a9JryG6VxlevUh-39" value="3" style="whiteSpace=wrap;fillColor=#e1d5e7;fontFamily=Times New Roman;fontSize=12;fontStyle=1;labelPosition=center;verticalLabelPosition=middle;align=center;verticalAlign=middle;spacing=0;strokeColor=#9673a6;" vertex="1" parent="1">
          <mxGeometry x="450.4" y="538.12" width="20" height="10" as="geometry" />
        </mxCell>
        <mxCell id="hsxIx1a9JryG6VxlevUh-40" value="3" style="whiteSpace=wrap;fillColor=#f8cecc;fontFamily=Times New Roman;fontSize=12;fontStyle=1;labelPosition=center;verticalLabelPosition=middle;align=center;verticalAlign=middle;spacing=0;strokeColor=#b85450;" vertex="1" parent="1">
          <mxGeometry x="440.8" y="520.16" width="9.6" height="10" as="geometry" />
        </mxCell>
        <mxCell id="hsxIx1a9JryG6VxlevUh-41" value="3" style="whiteSpace=wrap;fillColor=#f8cecc;fontFamily=Times New Roman;fontSize=12;fontStyle=1;labelPosition=center;verticalLabelPosition=middle;align=center;verticalAlign=middle;spacing=0;strokeColor=#b85450;" vertex="1" parent="1">
          <mxGeometry x="450.40000000000003" y="520.16" width="10" height="10" as="geometry" />
        </mxCell>
        <mxCell id="hsxIx1a9JryG6VxlevUh-42" value="3" style="whiteSpace=wrap;fillColor=#e1d5e7;fontFamily=Times New Roman;fontSize=12;fontStyle=1;labelPosition=center;verticalLabelPosition=middle;align=center;verticalAlign=middle;spacing=0;strokeColor=#9673a6;" vertex="1" parent="1">
          <mxGeometry x="470.27" y="538.12" width="19.33" height="10" as="geometry" />
        </mxCell>
        <mxCell id="hsxIx1a9JryG6VxlevUh-43" value="3" style="whiteSpace=wrap;fillColor=#f8cecc;fontFamily=Times New Roman;fontSize=12;fontStyle=1;labelPosition=center;verticalLabelPosition=middle;align=center;verticalAlign=middle;spacing=0;strokeColor=#b85450;" vertex="1" parent="1">
          <mxGeometry x="460.40000000000003" y="520.16" width="10" height="10" as="geometry" />
        </mxCell>
        <mxCell id="hsxIx1a9JryG6VxlevUh-44" value="3" style="whiteSpace=wrap;fillColor=#f8cecc;fontFamily=Times New Roman;fontSize=12;fontStyle=1;labelPosition=center;verticalLabelPosition=middle;align=center;verticalAlign=middle;spacing=0;strokeColor=#b85450;" vertex="1" parent="1">
          <mxGeometry x="470.39000000000004" y="520.16" width="10.01" height="10" as="geometry" />
        </mxCell>
        <mxCell id="hsxIx1a9JryG6VxlevUh-45" value="3" style="whiteSpace=wrap;fillColor=#e1d5e7;fontFamily=Times New Roman;fontSize=12;fontStyle=1;labelPosition=center;verticalLabelPosition=middle;align=center;verticalAlign=middle;spacing=0;strokeColor=#9673a6;" vertex="1" parent="1">
          <mxGeometry x="489.59000000000003" y="538.12" width="19.33" height="10" as="geometry" />
        </mxCell>
        <mxCell id="hsxIx1a9JryG6VxlevUh-46" value="3" style="whiteSpace=wrap;fillColor=#e1d5e7;fontFamily=Times New Roman;fontSize=12;fontStyle=1;labelPosition=center;verticalLabelPosition=middle;align=center;verticalAlign=middle;spacing=0;strokeColor=#9673a6;" vertex="1" parent="1">
          <mxGeometry x="508.91999999999996" y="538.12" width="19.33" height="10" as="geometry" />
        </mxCell>
        <mxCell id="hsxIx1a9JryG6VxlevUh-47" value="" style="endArrow=none;html=1;rounded=0;dashed=1;" edge="1" parent="1">
          <mxGeometry width="50" height="50" relative="1" as="geometry">
            <mxPoint x="350" y="553.04" as="sourcePoint" />
            <mxPoint x="350" y="487.04" as="targetPoint" />
          </mxGeometry>
        </mxCell>
        <mxCell id="hsxIx1a9JryG6VxlevUh-48" value="" style="endArrow=none;html=1;rounded=0;dashed=1;" edge="1" parent="1">
          <mxGeometry width="50" height="50" relative="1" as="geometry">
            <mxPoint x="360.04" y="553" as="sourcePoint" />
            <mxPoint x="360.04" y="520" as="targetPoint" />
          </mxGeometry>
        </mxCell>
        <mxCell id="hsxIx1a9JryG6VxlevUh-49" value="" style="endArrow=none;html=1;rounded=0;dashed=1;" edge="1" parent="1">
          <mxGeometry width="50" height="50" relative="1" as="geometry">
            <mxPoint x="440.4" y="553.12" as="sourcePoint" />
            <mxPoint x="440.4" y="487.12" as="targetPoint" />
          </mxGeometry>
        </mxCell>
        <mxCell id="hsxIx1a9JryG6VxlevUh-50" value="" style="endArrow=none;html=1;rounded=0;dashed=1;" edge="1" parent="1">
          <mxGeometry width="50" height="50" relative="1" as="geometry">
            <mxPoint x="450.44000000000005" y="553.08" as="sourcePoint" />
            <mxPoint x="450.44000000000005" y="520.08" as="targetPoint" />
          </mxGeometry>
        </mxCell>
        <mxCell id="hsxIx1a9JryG6VxlevUh-51" value="3" style="whiteSpace=wrap;fillColor=#e1d5e7;fontFamily=Times New Roman;fontSize=12;fontStyle=1;labelPosition=center;verticalLabelPosition=middle;align=center;verticalAlign=middle;spacing=0;strokeColor=#9673a6;" vertex="1" parent="1">
          <mxGeometry x="480.8" y="443" width="80" height="10" as="geometry" />
        </mxCell>
        <mxCell id="hsxIx1a9JryG6VxlevUh-52" value="3" style="whiteSpace=wrap;fillColor=#f8cecc;fontFamily=Times New Roman;fontSize=12;fontStyle=1;labelPosition=center;verticalLabelPosition=middle;align=center;verticalAlign=middle;spacing=0;strokeColor=#b85450;" vertex="1" parent="1">
          <mxGeometry x="440.8" y="426" width="40" height="10" as="geometry" />
        </mxCell>
        <mxCell id="hsxIx1a9JryG6VxlevUh-53" value="" style="endArrow=none;html=1;rounded=0;dashed=1;" edge="1" parent="1">
          <mxGeometry width="50" height="50" relative="1" as="geometry">
            <mxPoint x="480.4" y="459.16" as="sourcePoint" />
            <mxPoint x="480.4" y="392.16" as="targetPoint" />
          </mxGeometry>
        </mxCell>
        <mxCell id="N47SgGlcZyZ_UvSWA4Ys-1" value="" style="endArrow=none;html=1;rounded=0;dashed=1;" parent="1" edge="1">
          <mxGeometry width="50" height="50" relative="1" as="geometry">
            <mxPoint x="440.40000000000003" y="459.16" as="sourcePoint" />
            <mxPoint x="440.40000000000003" y="401.16" as="targetPoint" />
          </mxGeometry>
        </mxCell>
        <mxCell id="hsxIx1a9JryG6VxlevUh-54" value="" style="whiteSpace=wrap;fillColor=#e1d5e7;fontSize=12;fontFamily=Times New Roman;fontStyle=1;labelPosition=center;verticalLabelPosition=middle;align=center;verticalAlign=middle;spacing=0;strokeColor=#9673a6;" vertex="1" parent="1">
          <mxGeometry x="330.27" y="687.5" width="5" height="10" as="geometry" />
        </mxCell>
        <mxCell id="hsxIx1a9JryG6VxlevUh-55" value="" style="whiteSpace=wrap;fillColor=#e1d5e7;fontSize=12;fontFamily=Times New Roman;fontStyle=1;labelPosition=center;verticalLabelPosition=middle;align=center;verticalAlign=middle;spacing=0;strokeColor=#9673a6;" vertex="1" parent="1">
          <mxGeometry x="355.14" y="687.5" width="5" height="10" as="geometry" />
        </mxCell>
        <mxCell id="hsxIx1a9JryG6VxlevUh-56" value="" style="whiteSpace=wrap;fillColor=#e1d5e7;fontSize=12;fontFamily=Times New Roman;fontStyle=1;labelPosition=center;verticalLabelPosition=middle;align=center;verticalAlign=middle;spacing=0;strokeColor=#9673a6;" vertex="1" parent="1">
          <mxGeometry x="380.04" y="687.5" width="9.96" height="10" as="geometry" />
        </mxCell>
        <mxCell id="hsxIx1a9JryG6VxlevUh-57" value="" style="whiteSpace=wrap;fillColor=#e1d5e7;fontSize=12;fontFamily=Times New Roman;fontStyle=1;labelPosition=center;verticalLabelPosition=middle;align=center;verticalAlign=middle;spacing=0;strokeColor=#9673a6;" vertex="1" parent="1">
          <mxGeometry x="460.08000000000004" y="687.5" width="9.96" height="10" as="geometry" />
        </mxCell>
        <mxCell id="hsxIx1a9JryG6VxlevUh-58" value="" style="whiteSpace=wrap;fillColor=#e1d5e7;fontSize=12;fontFamily=Times New Roman;fontStyle=1;labelPosition=center;verticalLabelPosition=middle;align=center;verticalAlign=middle;spacing=0;strokeColor=#9673a6;" vertex="1" parent="1">
          <mxGeometry x="540.5" y="687.5" width="9.96" height="10" as="geometry" />
        </mxCell>
        <mxCell id="hsxIx1a9JryG6VxlevUh-60" value="" style="whiteSpace=wrap;fillColor=#e1d5e7;fontSize=12;fontFamily=Times New Roman;fontStyle=1;labelPosition=center;verticalLabelPosition=middle;align=center;verticalAlign=middle;spacing=0;strokeColor=#9673a6;" vertex="1" parent="1">
          <mxGeometry x="410.27" y="687.5" width="5" height="10" as="geometry" />
        </mxCell>
        <mxCell id="hsxIx1a9JryG6VxlevUh-61" value="" style="whiteSpace=wrap;fillColor=#e1d5e7;fontSize=12;fontFamily=Times New Roman;fontStyle=1;labelPosition=center;verticalLabelPosition=middle;align=center;verticalAlign=middle;spacing=0;strokeColor=#9673a6;" vertex="1" parent="1">
          <mxGeometry x="435.14" y="687.5" width="5" height="10" as="geometry" />
        </mxCell>
        <mxCell id="hsxIx1a9JryG6VxlevUh-62" value="" style="whiteSpace=wrap;fillColor=#e1d5e7;fontSize=12;fontFamily=Times New Roman;fontStyle=1;labelPosition=center;verticalLabelPosition=middle;align=center;verticalAlign=middle;spacing=0;strokeColor=#9673a6;" vertex="1" parent="1">
          <mxGeometry x="490.27" y="687.5" width="5" height="10" as="geometry" />
        </mxCell>
        <mxCell id="hsxIx1a9JryG6VxlevUh-63" value="" style="whiteSpace=wrap;fillColor=#e1d5e7;fontSize=12;fontFamily=Times New Roman;fontStyle=1;labelPosition=center;verticalLabelPosition=middle;align=center;verticalAlign=middle;spacing=0;strokeColor=#9673a6;" vertex="1" parent="1">
          <mxGeometry x="515.04" y="687.5" width="5" height="10" as="geometry" />
        </mxCell>
        <mxCell id="hsxIx1a9JryG6VxlevUh-64" value="1" style="whiteSpace=wrap;fillColor=#e1d5e7;fontFamily=Times New Roman;fontSize=12;fontStyle=1;labelPosition=center;verticalLabelPosition=middle;align=center;verticalAlign=middle;spacing=0;strokeColor=#9673a6;" vertex="1" parent="1">
          <mxGeometry x="310.67" y="704" width="80" height="10" as="geometry" />
        </mxCell>
        <mxCell id="hsxIx1a9JryG6VxlevUh-66" value="2" style="whiteSpace=wrap;fillColor=#e1d5e7;fontFamily=Times New Roman;fontSize=12;fontStyle=1;labelPosition=center;verticalLabelPosition=middle;align=center;verticalAlign=middle;spacing=0;strokeColor=#9673a6;" vertex="1" parent="1">
          <mxGeometry x="390.67" y="704" width="80" height="10" as="geometry" />
        </mxCell>
        <mxCell id="hsxIx1a9JryG6VxlevUh-67" value="3" style="whiteSpace=wrap;fillColor=#e1d5e7;fontFamily=Times New Roman;fontSize=12;fontStyle=1;labelPosition=center;verticalLabelPosition=middle;align=center;verticalAlign=middle;spacing=0;strokeColor=#9673a6;" vertex="1" parent="1">
          <mxGeometry x="470.67" y="704" width="80" height="10" as="geometry" />
        </mxCell>
        <mxCell id="hsxIx1a9JryG6VxlevUh-68" value="" style="endArrow=none;html=1;rounded=0;dashed=1;" edge="1" parent="1">
          <mxGeometry width="50" height="50" relative="1" as="geometry">
            <mxPoint x="480.79999999999995" y="553.16" as="sourcePoint" />
            <mxPoint x="480.79999999999995" y="487.16" as="targetPoint" />
          </mxGeometry>
        </mxCell>
      </root>
    </mxGraphModel>
  </diagram>
</mxfile>
